# xmcd
#
# Track frame offsets:
#	150
#	52647
#	115310
#	152112
#	174230
#
# Disc length: 3350 seconds
#
# Revision: 0
# Processed by: cddbd v1.5.2PL0 Copyright (c) Steve Scherf et al.
# Submitted via: EasyCDDAExtractor 10.0.1.1
#
DISCID=300d1405
DTITLE=Eric Clapton and Buddy Guy - Ronnie Scotts 1987 Disc 2
DYEAR=1987
DGENRE=Blues
TTITLE0=Hurt So Bad
TTITLE1=Wanna Make Love
TTITLE2=Someday Baby Bonus Track Dingwalls 87
TTITLE3=Early In The Morning Bonus Track Dingwalls 87
TTITLE4=Rock Me Baby Bonus Track Dingwalls 87
EXTD=
EXTT0=
EXTT1=
EXTT2=
EXTT3=
EXTT4=
PLAYORDER=
